<mxfile host="app.diagrams.net" agent="Mozilla/5.0 (Windows NT 10.0; Win64; x64) AppleWebKit/537.36 (KHTML, like Gecko) Chrome/138.0.0.0 Safari/537.36" version="28.0.7">
  <diagram name="Page-1" id="tcTpVvZHuURKKfCioh4n">
    <mxGraphModel dx="1895" dy="958" grid="1" gridSize="10" guides="1" tooltips="1" connect="1" arrows="1" fold="1" page="1" pageScale="1" pageWidth="850" pageHeight="1100" math="0" shadow="0">
      <root>
        <mxCell id="0" />
        <mxCell id="1" parent="0" />
        <mxCell id="7Or3nZsr0hIlS5Gzu9sf-3" value="" style="edgeStyle=orthogonalEdgeStyle;rounded=0;orthogonalLoop=1;jettySize=auto;html=1;" edge="1" parent="1">
          <mxGeometry relative="1" as="geometry">
            <mxPoint x="285" y="140" as="sourcePoint" />
            <mxPoint x="285" y="209.9999999999999" as="targetPoint" />
          </mxGeometry>
        </mxCell>
        <mxCell id="7Or3nZsr0hIlS5Gzu9sf-5" value="" style="edgeStyle=orthogonalEdgeStyle;rounded=0;orthogonalLoop=1;jettySize=auto;html=1;" edge="1" parent="1" target="7Or3nZsr0hIlS5Gzu9sf-4">
          <mxGeometry relative="1" as="geometry">
            <mxPoint x="285" y="310" as="sourcePoint" />
          </mxGeometry>
        </mxCell>
        <mxCell id="7Or3nZsr0hIlS5Gzu9sf-7" value="" style="edgeStyle=orthogonalEdgeStyle;rounded=0;orthogonalLoop=1;jettySize=auto;html=1;" edge="1" parent="1" source="7Or3nZsr0hIlS5Gzu9sf-4" target="7Or3nZsr0hIlS5Gzu9sf-6">
          <mxGeometry relative="1" as="geometry">
            <Array as="points">
              <mxPoint x="285" y="500" />
              <mxPoint x="285" y="500" />
            </Array>
          </mxGeometry>
        </mxCell>
        <mxCell id="7Or3nZsr0hIlS5Gzu9sf-4" value="&lt;b&gt;&lt;font style=&quot;font-size: 15px;&quot;&gt;Recognize&lt;/font&gt;&lt;/b&gt;&lt;div&gt;&lt;b&gt;&lt;font style=&quot;font-size: 15px;&quot;&gt;the face&lt;/font&gt;&lt;/b&gt;&lt;/div&gt;&lt;div&gt;run&lt;/div&gt;&lt;div&gt;face_recognize.py&lt;/div&gt;" style="shape=parallelogram;perimeter=parallelogramPerimeter;whiteSpace=wrap;html=1;fixedSize=1;fillColor=#FF0080;strokeColor=#FF0080;" vertex="1" parent="1">
          <mxGeometry x="183.5" y="390" width="205" height="60" as="geometry" />
        </mxCell>
        <mxCell id="7Or3nZsr0hIlS5Gzu9sf-10" value="" style="edgeStyle=orthogonalEdgeStyle;rounded=0;orthogonalLoop=1;jettySize=auto;html=1;" edge="1" parent="1" source="7Or3nZsr0hIlS5Gzu9sf-6" target="7Or3nZsr0hIlS5Gzu9sf-9">
          <mxGeometry relative="1" as="geometry" />
        </mxCell>
        <mxCell id="7Or3nZsr0hIlS5Gzu9sf-6" value="&lt;b&gt;&lt;font style=&quot;font-size: 19px;&quot;&gt;Face&lt;/font&gt;&lt;/b&gt;&lt;div&gt;&lt;b&gt;&lt;font style=&quot;font-size: 19px;&quot;&gt;Recognized&lt;/font&gt;&lt;/b&gt;&lt;/div&gt;" style="rhombus;whiteSpace=wrap;html=1;fillColor=#dae8fc;strokeColor=#6c8ebf;" vertex="1" parent="1">
          <mxGeometry x="184" y="540" width="200" height="110" as="geometry" />
        </mxCell>
        <mxCell id="7Or3nZsr0hIlS5Gzu9sf-9" value="&lt;b&gt;&lt;font&gt;Stored in csv file file&lt;/font&gt;&lt;/b&gt;&lt;div&gt;&lt;b&gt;&lt;font&gt;with Registration&lt;/font&gt;&lt;/b&gt;&lt;/div&gt;&lt;div&gt;&lt;b&gt;&lt;font&gt;Number &amp;amp; Date,&lt;/font&gt;&lt;/b&gt;&lt;/div&gt;&lt;div&gt;&lt;b&gt;&lt;font&gt;Time of Entry&lt;/font&gt;&lt;/b&gt;&lt;/div&gt;" style="shape=parallelogram;perimeter=parallelogramPerimeter;whiteSpace=wrap;html=1;fixedSize=1;fillColor=#FB7550;strokeColor=#FF3333;" vertex="1" parent="1">
          <mxGeometry x="165" y="720" width="240" height="60" as="geometry" />
        </mxCell>
        <mxCell id="7Or3nZsr0hIlS5Gzu9sf-11" value="&lt;b&gt;&lt;font style=&quot;font-size: 19px;&quot;&gt;End&lt;/font&gt;&lt;/b&gt;" style="ellipse;whiteSpace=wrap;html=1;fillColor=#ffe6cc;strokeColor=#d79b00;" vertex="1" parent="1">
          <mxGeometry x="200" y="840" width="170" height="70" as="geometry" />
        </mxCell>
        <mxCell id="7Or3nZsr0hIlS5Gzu9sf-14" value="" style="endArrow=classic;html=1;rounded=0;" edge="1" parent="1">
          <mxGeometry width="50" height="50" relative="1" as="geometry">
            <mxPoint x="284.5" y="780" as="sourcePoint" />
            <mxPoint x="284.5" y="840" as="targetPoint" />
          </mxGeometry>
        </mxCell>
        <mxCell id="7Or3nZsr0hIlS5Gzu9sf-16" value="&lt;b&gt;&lt;font style=&quot;font-size: 17px;&quot;&gt;Give your&lt;/font&gt;&lt;/b&gt;&lt;div&gt;&lt;b&gt;&lt;font style=&quot;font-size: 17px;&quot;&gt;&amp;nbsp;photograph&lt;/font&gt;&lt;/b&gt;&lt;/div&gt;" style="rounded=0;whiteSpace=wrap;html=1;fillColor=#fff2cc;strokeColor=#d6b656;" vertex="1" parent="1">
          <mxGeometry x="510" y="225" width="250" height="70" as="geometry" />
        </mxCell>
        <mxCell id="7Or3nZsr0hIlS5Gzu9sf-19" value="&lt;b&gt;&lt;font style=&quot;font-size: 15px;&quot;&gt;Store the face&amp;nbsp;&lt;/font&gt;&lt;/b&gt;&lt;div&gt;&lt;span style=&quot;background-color: transparent; color: light-dark(rgb(0, 0, 0), rgb(255, 255, 255));&quot;&gt;&lt;b&gt;&lt;font style=&quot;font-size: 15px;&quot;&gt;data in folder&lt;/font&gt;&lt;/b&gt;&lt;/span&gt;&lt;/div&gt;&lt;div&gt;&lt;span style=&quot;background-color: transparent; color: light-dark(rgb(0, 0, 0), rgb(255, 255, 255));&quot;&gt;&lt;b&gt;&lt;font style=&quot;font-size: 15px;&quot;&gt;&amp;nbsp;on your name&lt;/font&gt;&lt;/b&gt;&lt;/span&gt;&lt;/div&gt;" style="rounded=0;whiteSpace=wrap;html=1;fillColor=#e1d5e7;strokeColor=#9673a6;" vertex="1" parent="1">
          <mxGeometry x="500" y="390" width="260" height="60" as="geometry" />
        </mxCell>
        <mxCell id="7Or3nZsr0hIlS5Gzu9sf-20" value="" style="endArrow=none;html=1;rounded=0;exitX=0.5;exitY=0;exitDx=0;exitDy=0;" edge="1" parent="1" source="7Or3nZsr0hIlS5Gzu9sf-19">
          <mxGeometry width="50" height="50" relative="1" as="geometry">
            <mxPoint x="630" y="360" as="sourcePoint" />
            <mxPoint x="630" y="295" as="targetPoint" />
          </mxGeometry>
        </mxCell>
        <mxCell id="7Or3nZsr0hIlS5Gzu9sf-22" value="" style="endArrow=classic;html=1;rounded=0;exitX=0;exitY=0.5;exitDx=0;exitDy=0;" edge="1" parent="1" source="7Or3nZsr0hIlS5Gzu9sf-19" target="7Or3nZsr0hIlS5Gzu9sf-4">
          <mxGeometry width="50" height="50" relative="1" as="geometry">
            <mxPoint x="490" y="430" as="sourcePoint" />
            <mxPoint x="400" y="450" as="targetPoint" />
          </mxGeometry>
        </mxCell>
        <mxCell id="7Or3nZsr0hIlS5Gzu9sf-23" value="" style="endArrow=none;html=1;rounded=0;exitX=1;exitY=0.5;exitDx=0;exitDy=0;" edge="1" parent="1" source="7Or3nZsr0hIlS5Gzu9sf-6">
          <mxGeometry width="50" height="50" relative="1" as="geometry">
            <mxPoint x="385" y="600" as="sourcePoint" />
            <mxPoint x="790" y="590" as="targetPoint" />
          </mxGeometry>
        </mxCell>
        <mxCell id="7Or3nZsr0hIlS5Gzu9sf-24" value="" style="endArrow=none;html=1;rounded=0;" edge="1" parent="1">
          <mxGeometry width="50" height="50" relative="1" as="geometry">
            <mxPoint x="790" y="590" as="sourcePoint" />
            <mxPoint x="790" y="190" as="targetPoint" />
            <Array as="points" />
          </mxGeometry>
        </mxCell>
        <mxCell id="7Or3nZsr0hIlS5Gzu9sf-26" value="" style="endArrow=none;html=1;rounded=0;" edge="1" parent="1">
          <mxGeometry width="50" height="50" relative="1" as="geometry">
            <mxPoint x="640" y="190" as="sourcePoint" />
            <mxPoint x="790" y="190" as="targetPoint" />
          </mxGeometry>
        </mxCell>
        <mxCell id="7Or3nZsr0hIlS5Gzu9sf-27" value="" style="endArrow=classic;html=1;rounded=0;" edge="1" parent="1">
          <mxGeometry width="50" height="50" relative="1" as="geometry">
            <mxPoint x="640" y="190" as="sourcePoint" />
            <mxPoint x="640" y="225" as="targetPoint" />
          </mxGeometry>
        </mxCell>
        <mxCell id="7Or3nZsr0hIlS5Gzu9sf-28" value="&lt;font style=&quot;font-size: 31px;&quot;&gt;&lt;b style=&quot;&quot;&gt;Start&lt;/b&gt;&lt;/font&gt;" style="ellipse;whiteSpace=wrap;html=1;fillColor=#d5e8d4;strokeColor=#82b366;" vertex="1" parent="1">
          <mxGeometry x="195" y="70" width="180" height="70" as="geometry" />
        </mxCell>
        <mxCell id="7Or3nZsr0hIlS5Gzu9sf-29" value="Yes" style="text;html=1;align=center;verticalAlign=middle;resizable=0;points=[];autosize=1;strokeColor=none;fillColor=none;" vertex="1" parent="1">
          <mxGeometry x="425" y="240" width="40" height="30" as="geometry" />
        </mxCell>
        <mxCell id="7Or3nZsr0hIlS5Gzu9sf-33" value="&lt;b&gt;&lt;font style=&quot;font-size: 15px;&quot;&gt;New&lt;/font&gt;&lt;/b&gt;&lt;div&gt;&lt;b&gt;&lt;font style=&quot;font-size: 15px;&quot;&gt;User?&lt;/font&gt;&lt;/b&gt;&lt;/div&gt;&lt;div&gt;&lt;font style=&quot;font-size: 11px;&quot;&gt;run&lt;/font&gt;&lt;/div&gt;&lt;div&gt;&lt;font size=&quot;1&quot;&gt;Create_dataset.py&lt;/font&gt;&lt;/div&gt;" style="rhombus;whiteSpace=wrap;html=1;fillColor=#FF3333;strokeColor=#FF3333;" vertex="1" parent="1">
          <mxGeometry x="191" y="210" width="190" height="100" as="geometry" />
        </mxCell>
        <mxCell id="7Or3nZsr0hIlS5Gzu9sf-35" value="" style="endArrow=none;html=1;rounded=0;exitX=1;exitY=0.5;exitDx=0;exitDy=0;entryX=0;entryY=0.5;entryDx=0;entryDy=0;" edge="1" parent="1" source="7Or3nZsr0hIlS5Gzu9sf-33" target="7Or3nZsr0hIlS5Gzu9sf-16">
          <mxGeometry width="50" height="50" relative="1" as="geometry">
            <mxPoint x="460" y="300" as="sourcePoint" />
            <mxPoint x="510" y="250" as="targetPoint" />
          </mxGeometry>
        </mxCell>
        <mxCell id="7Or3nZsr0hIlS5Gzu9sf-36" value="No" style="text;html=1;align=center;verticalAlign=middle;resizable=0;points=[];autosize=1;strokeColor=none;fillColor=none;" vertex="1" parent="1">
          <mxGeometry x="240" y="328" width="40" height="30" as="geometry" />
        </mxCell>
        <mxCell id="7Or3nZsr0hIlS5Gzu9sf-37" value="No" style="text;html=1;align=center;verticalAlign=middle;resizable=0;points=[];autosize=1;strokeColor=none;fillColor=none;" vertex="1" parent="1">
          <mxGeometry x="550" y="558" width="40" height="30" as="geometry" />
        </mxCell>
        <mxCell id="7Or3nZsr0hIlS5Gzu9sf-38" value="Yes" style="text;html=1;align=center;verticalAlign=middle;resizable=0;points=[];autosize=1;strokeColor=none;fillColor=none;" vertex="1" parent="1">
          <mxGeometry x="230" y="668" width="40" height="30" as="geometry" />
        </mxCell>
      </root>
    </mxGraphModel>
  </diagram>
</mxfile>
